<svg width="200" height="50" viewBox="0 0 200 50" fill="none" xmlns="http://www.w3.org/2000/svg">
  <path d="M26.5 10.5C30.7 12.5 34.1667 14.6667 37 17C39.8333 19.3333 42.3333 22.3333 44.5 26C46.3333 29 47.6667 32.1667 48.5 35.5C49.3333 38.8333 49.5 42.3333 49 46C45.4 45 42.1667 43.3333 39.3 41C36.5667 38.6 34.3333 35.6667 32.6 32.2C30.9333 29 29.75 25.5833 29.05 22C28.35 18.4167 28.15 14.6 28.45 10.55C24.45 13.5 20.95 16.7167 17.95 20.2C15.05 23.6 12.6333 28.3667 10.7 34.5C10.1667 36.4 9.58333 38.2 8.95 39.9C8.31667 41.6 7.4 43.0333 6.2 44.2C6.13333 43.8 6.05 43.3667 5.95 42.9C5.85 42.4333 5.73333 41.9333 5.6 41.4C3.93333 35.1333 3.5 28.2333 4.3 20.7C5.1 13.1667 7.26667 5.5 10.8 -2.38419e-07C16.8667 1.73333 21.5333 5.06667 24.8 10C24.8333 10.05 24.8667 10.1167 24.9 10.2C24.95 10.25 25 10.3167 25.05 10.4C25.1 10.4667 25.15 10.5333 25.2 10.6C25.5667 10.7333 25.9833 10.7667 26.45 10.7L26.5 10.5Z" fill="#3B82F6"/>
  <path d="M70.944 36V14.4H74.544L85.584 29.088V14.4H89.376V36H85.776L74.736 21.312V36H70.944ZM100.563 36.384C98.5834 36.384 96.8034 35.9573 95.2234 35.104C93.6434 34.2507 92.3954 33.0667 91.4794 31.552C90.5634 30.0373 90.1054 28.3093 90.1054 26.368C90.1054 24.4267 90.5634 22.6987 91.4794 21.184C92.3954 19.6693 93.6434 18.4853 95.2234 17.632C96.8034 16.7787 98.5834 16.352 100.563 16.352C102.544 16.352 104.313 16.7787 105.872 17.632C107.452 18.4853 108.689 19.6693 109.585 21.184C110.501 22.6987 110.959 24.4267 110.959 26.368C110.959 28.3093 110.501 30.0373 109.585 31.552C108.689 33.0667 107.452 34.2507 105.872 35.104C104.313 35.9573 102.544 36.384 100.563 36.384ZM100.563 32.976C101.713 32.976 102.736 32.72 103.632 32.208C104.548 31.696 105.253 30.976 105.744 30.048C106.256 29.12 106.512 27.9893 106.512 26.656C106.512 25.3227 106.256 24.192 105.744 23.264C105.253 22.336 104.548 21.616 103.632 21.104C102.736 20.592 101.713 20.336 100.563 20.336C99.4134 20.336 98.3794 20.592 97.4634 21.104C96.5474 21.616 95.8314 22.336 95.3194 23.264C94.8074 24.192 94.5514 25.3227 94.5514 26.656C94.5514 27.9893 94.8074 29.12 95.3194 30.048C95.8314 30.976 96.5474 31.696 97.4634 32.208C98.3794 32.72 99.4134 32.976 100.563 32.976ZM116.662 36V16.736H120.454V20.336C120.945 19.088 121.702 18.16 122.726 17.552C123.749 16.944 124.963 16.64 126.366 16.64H128.042V20.368H126.014C124.313 20.368 122.993 20.8053 122.054 21.68C121.115 22.5547 120.646 23.8667 120.646 25.616V36H116.662ZM142.222 36.384C139.926 36.384 138.03 35.936 136.534 35.04C135.038 34.144 133.958 32.9493 133.294 31.456C132.63 29.9627 132.298 28.32 132.298 26.528C132.298 24.7147 132.63 23.0613 133.294 21.568C133.958 20.0747 135.038 18.8693 136.534 17.952C138.03 17.0347 139.926 16.576 142.222 16.576C144.414 16.576 146.234 17.0133 147.686 17.888C149.139 18.7627 150.171 19.9787 150.79 21.536L147.046 22.816C146.662 21.9733 146.023 21.2987 145.13 20.784C144.259 20.2693 143.286 20.016 142.222 20.016C141.038 20.016 139.99 20.272 139.078 20.784C138.166 21.2747 137.451 21.9787 136.934 22.88C136.438 23.7813 136.19 25.0293 136.19 26.624C136.19 28.1973 136.438 29.4347 136.934 30.336C137.451 31.2373 138.166 31.9307 139.078 32.4C139.99 32.8693 141.038 33.104 142.222 33.104C143.286 33.104 144.259 32.8507 145.13 32.344C146.023 31.8373 146.662 31.1627 147.046 30.32L150.79 31.584C150.171 33.1413 149.139 34.3573 147.686 35.232C146.234 36.0267 144.414 36.4267 142.222 36.384ZM169.259 36.384C167.151 36.384 165.301 35.9573 163.707 35.104C162.135 34.2507 160.895 33.0667 159.987 31.552C159.079 30.0373 158.627 28.3093 158.627 26.368C158.627 24.4267 159.085 22.6987 160.003 21.184C160.92 19.6693 162.168 18.4853 163.747 17.632C165.327 16.7787 167.161 16.352 169.251 16.352C171.32 16.352 173.112 16.752 174.627 17.552C176.141 18.352 177.272 19.4827 178.019 20.944C178.787 22.4053 179.144 24.0693 179.091 25.936H162.595C162.723 27.44 163.213 28.6773 164.067 29.648C164.941 30.6187 166.435 31.104 168.547 31.104C169.816 31.104 170.851 30.864 171.651 30.384C172.472 29.904 173.027 29.248 173.315 28.416L178.115 28.96C177.389 31.1087 176.109 32.7307 174.275 33.824C172.461 34.9173 170.101 35.4507 167.195 35.424C166.381 35.4027 165.707 35.2773 165.171 35.056C164.635 34.8347 164.168 34.576 163.771 34.28C164.168 34.6613 164.675 34.9707 165.291 35.216C165.928 35.4613 166.435 35.5867 166.811 35.584C167.208 35.584 167.723 35.5307 168.355 35.424C170.573 35.4507 172.365 34.9173 173.731 33.824C175.096 32.7307 176.003 31.1087 176.451 28.96L171.651 28.416C171.363 29.248 170.808 29.904 169.987 30.384C169.187 30.864 168.152 31.104 166.883 31.104C164.771 31.104 163.277 30.6187 162.403 29.648C161.549 28.6773 161.059 27.44 160.931 25.936H177.427C177.48 24.0693 177.123 22.4053 176.355 20.944C175.608 19.4827 174.477 18.352 172.963 17.552C171.448 16.752 169.656 16.352 167.587 16.352C165.496 16.352 163.661 16.7787 162.083 17.632C160.504 18.4853 159.256 19.6693 158.339 21.184C157.421 22.6987 156.963 24.4267 156.963 26.368C156.963 28.3093 157.421 30.0373 158.339 31.552C159.256 33.0667 160.504 34.2507 162.083 35.104C163.683 35.9573 165.533 36.384 167.651 36.384C167.587 36.384 167.523 36.384 167.459 36.384C167.416 36.384 167.352 36.384 167.267 36.384H169.259ZM162.595 23.36H175.667C175.603 22.3733 175.304 21.5093 174.771 20.768C174.256 19.8987 173.533 19.232 172.595 18.768C171.667 18.2827 170.595 18.04 169.379 18.04C168.141 18.04 167.048 18.2827 166.099 18.768C165.171 19.232 164.453 19.8987 163.947 20.768C163.453 21.5093 163.149 22.3733 163.027 23.36H162.595Z" fill="#ffffff"/>
</svg> 